<svg width="471" height="122" viewBox="0 0 471 122" fill="none" xmlns="http://www.w3.org/2000/svg">
<rect y="98" width="471" height="9" fill="#EB1C5E"/>
<path d="M8 23.0513L29 5V23.0513L11.4186 37L8 23.0513Z" fill="#EB1C5E" stroke="white"/>
<rect x="11.5" y="96.5" width="45" height="6" fill="#EB1C5E" stroke="white"/>
<path d="M41.5 2.38474V99.5H26.5V0.564348L41.5 2.38474Z" fill="#EB1C5E" stroke="white"/>
<path d="M53.977 25.1H69.206L75.996 73.697H76.19L82.98 25.1H98.209V93H88.121V41.59H87.927L80.167 93H71.243L63.483 41.59H63.289V93H53.977V25.1ZM124.116 25.1H138.569L149.627 93H138.957L137.017 79.517V79.711H124.892L122.952 93H113.058L124.116 25.1ZM135.756 70.496L131.003 36.934H130.809L126.153 70.496H135.756ZM164.504 25.1H180.315C185.812 25.1 189.821 26.3933 192.343 28.98C194.865 31.502 196.126 35.4143 196.126 40.717V44.888C196.126 51.9367 193.798 56.3987 189.142 58.274V58.468C191.729 59.244 193.539 60.8283 194.574 63.221C195.673 65.6137 196.223 68.8147 196.223 72.824V84.755C196.223 86.695 196.288 88.2793 196.417 89.508C196.546 90.672 196.87 91.836 197.387 93H186.523C186.135 91.9007 185.876 90.866 185.747 89.896C185.618 88.926 185.553 87.18 185.553 84.658V72.242C185.553 69.138 185.036 66.9717 184.001 65.743C183.031 64.5143 181.317 63.9 178.86 63.9H175.174V93H164.504V25.1ZM179.054 54.2C181.188 54.2 182.772 53.6503 183.807 52.551C184.906 51.4517 185.456 49.6087 185.456 47.022V41.784C185.456 39.3267 185.003 37.5483 184.098 36.449C183.257 35.3497 181.899 34.8 180.024 34.8H175.174V54.2H179.054ZM213.326 25.1H223.996V53.715L237.576 25.1H248.246L235.539 50.029L248.44 93H237.285L228.264 62.736L223.996 71.369V93H213.326V25.1ZM263.19 25.1H292.29V34.8H273.86V52.745H288.507V62.445H273.86V83.3H292.29V93H263.19V25.1ZM308.128 25.1H323.939C329.436 25.1 333.445 26.3933 335.967 28.98C338.489 31.502 339.75 35.4143 339.75 40.717V44.888C339.75 51.9367 337.422 56.3987 332.766 58.274V58.468C335.353 59.244 337.164 60.8283 338.198 63.221C339.298 65.6137 339.847 68.8147 339.847 72.824V84.755C339.847 86.695 339.912 88.2793 340.041 89.508C340.171 90.672 340.494 91.836 341.011 93H330.147C329.759 91.9007 329.501 90.866 329.371 89.896C329.242 88.926 329.177 87.18 329.177 84.658V72.242C329.177 69.138 328.66 66.9717 327.625 65.743C326.655 64.5143 324.942 63.9 322.484 63.9H318.798V93H308.128V25.1ZM322.678 54.2C324.812 54.2 326.397 53.6503 327.431 52.551C328.531 51.4517 329.08 49.6087 329.08 47.022V41.784C329.08 39.3267 328.628 37.5483 327.722 36.449C326.882 35.3497 325.524 34.8 323.648 34.8H318.798V54.2H322.678ZM370.821 93.97C365.648 93.97 361.736 92.515 359.084 89.605C356.433 86.6303 355.107 82.3947 355.107 76.898V73.018H365.195V77.674C365.195 82.0713 367.038 84.27 370.724 84.27C372.535 84.27 373.893 83.7527 374.798 82.718C375.768 81.6187 376.253 79.8727 376.253 77.48C376.253 74.6347 375.607 72.145 374.313 70.011C373.02 67.8123 370.627 65.1933 367.135 62.154C362.738 58.274 359.666 54.782 357.92 51.678C356.174 48.5093 355.301 44.9527 355.301 41.008C355.301 35.6407 356.659 31.502 359.375 28.592C362.091 25.6173 366.036 24.13 371.209 24.13C376.318 24.13 380.166 25.6173 382.752 28.592C385.404 31.502 386.729 35.7053 386.729 41.202V44.015H376.641V40.523C376.641 38.195 376.189 36.5137 375.283 35.479C374.378 34.3797 373.052 33.83 371.306 33.83C367.75 33.83 365.971 35.9963 365.971 40.329C365.971 42.7863 366.618 45.082 367.911 47.216C369.269 49.35 371.694 51.9367 375.186 54.976C379.648 58.856 382.72 62.3803 384.401 65.549C386.083 68.7177 386.923 72.436 386.923 76.704C386.923 82.2653 385.533 86.5333 382.752 89.508C380.036 92.4827 376.059 93.97 370.821 93.97Z" fill="#EB1C5E"/>
<path d="M391.64 90.76H395.88V95H391.64V90.76ZM409.145 95.4C407.038 95.4 405.425 94.8 404.305 93.6C403.211 92.4 402.665 90.7067 402.665 88.52V73.48C402.665 71.2933 403.211 69.6 404.305 68.4C405.425 67.2 407.038 66.6 409.145 66.6C411.251 66.6 412.851 67.2 413.945 68.4C415.065 69.6 415.625 71.2933 415.625 73.48V76.44H411.465V73.2C411.465 71.4667 410.731 70.6 409.265 70.6C407.798 70.6 407.065 71.4667 407.065 73.2V88.84C407.065 90.5467 407.798 91.4 409.265 91.4C410.731 91.4 411.465 90.5467 411.465 88.84V84.56H415.625V88.52C415.625 90.7067 415.065 92.4 413.945 93.6C412.851 94.8 411.251 95.4 409.145 95.4ZM428.695 95.4C426.535 95.4 424.882 94.7867 423.735 93.56C422.589 92.3333 422.015 90.6 422.015 88.36V73.64C422.015 71.4 422.589 69.6667 423.735 68.44C424.882 67.2133 426.535 66.6 428.695 66.6C430.855 66.6 432.509 67.2133 433.655 68.44C434.802 69.6667 435.375 71.4 435.375 73.64V88.36C435.375 90.6 434.802 92.3333 433.655 93.56C432.509 94.7867 430.855 95.4 428.695 95.4ZM428.695 91.4C430.215 91.4 430.975 90.48 430.975 88.64V73.36C430.975 71.52 430.215 70.6 428.695 70.6C427.175 70.6 426.415 71.52 426.415 73.36V88.64C426.415 90.48 427.175 91.4 428.695 91.4ZM442.351 67H448.631L451.431 87.04H451.511L454.311 67H460.591V95H456.431V73.8H456.351L453.151 95H449.471L446.271 73.8H446.191V95H442.351V67Z" fill="#EB1C5E"/>
</svg>